<?xml version="1.0" encoding="UTF-8"?>
<svg width="368px" height="354px" viewBox="0 0 368 354" version="1.1" xmlns="http://www.w3.org/2000/svg" xmlns:xlink="http://www.w3.org/1999/xlink">
    <!-- Generator: Sketch 45.1 (43504) - http://www.bohemiancoding.com/sketch -->
    <title>Combined Shape</title>
    <desc>Created with Sketch.</desc>
    <defs></defs>
    <g id="Page-1" stroke="none" stroke-width="1" fill="none" fill-rule="evenodd" stroke-linecap="square">
        <path d="M124.144443,205.76779 L210.181357,8.35432425 L209.892307,7.69191777 L210.605722,7.38060921 L211.689817,4.89313158 L213.999441,5.89971387 L216.308082,4.89230658 L217.393065,7.37872653 L218.106868,7.68981677 L217.818021,8.35258303 L361.707888,338.100194 L363.107693,341.308082 L357.005949,343.970662 L356.841144,344.264591 L353.788276,342.552868 L127.470114,215.657713 L70.7085258,345.898343 L69.3101832,349.106868 L62.8931316,346.310183 L64.2914742,343.101657 L121.333712,212.217071 L7.78827639,148.552868 L4.73540851,146.841144 L8.15885573,140.735409 L11.2117236,142.447132 L124.144443,205.76779 Z M130.280845,209.208432 L352.097962,333.579879 L214.001685,17.1092439 L130.280845,209.208432 Z" id="Combined-Shape" stroke="#013A01" stroke-width="7"></path>
    </g>
</svg>